<svg xmlns="http://www.w3.org/2000/svg" width="26" height="26" fill="none"><g clip-path="url(#a)"><path fill="url(#b)" d="m22.427 13.654-.582-1.653-6.276 6.276a3.226 3.226 0 0 1-2.298.952 3.226 3.226 0 0 1-2.298-.952L6.37 13.673a3.226 3.226 0 0 1-.952-2.298c0-.868.338-1.685.952-2.298a3.226 3.226 0 0 1 2.298-.952c.868 0 1.685.338 2.298.952l2.306 2.306 6.18-6.18-.416-1.18-.192-1.147a2.125 2.125 0 0 0-1.293-1.628 2.124 2.124 0 0 0-2.068.236l-3.01 2.18-3.044-2.185a2.137 2.137 0 0 0-2.072-.229 2.127 2.127 0 0 0-1.282 1.624l-.59 3.67-3.69.613A2.129 2.129 0 0 0 .164 8.449a2.13 2.13 0 0 0 .237 2.07l2.179 3.01-2.185 3.044a2.14 2.14 0 0 0-.229 2.071 2.128 2.128 0 0 0 1.624 1.283l3.67.59.613 3.69c.119.732.6 1.34 1.282 1.626a2.14 2.14 0 0 0 2.08-.234l3.01-2.18 3.036 2.18a2.132 2.132 0 0 0 2.068.236 2.126 2.126 0 0 0 1.293-1.626l.59-3.669 3.69-.613a2.142 2.142 0 0 0 1.392-3.362l-2.088-2.91Z"/><path fill="url(#c)" d="M13.27 17.063a1.08 1.08 0 0 1-.765-.318l-4.604-4.604a1.082 1.082 0 1 1 1.532-1.532l3.838 3.839 10.88-10.88A1.082 1.082 0 1 1 25.683 5.1L14.037 16.745a1.08 1.08 0 0 1-.766.318Z"/></g><defs><linearGradient id="b" x1="-3.31" x2="21.85" y1="21.114" y2="3.729" gradientUnits="userSpaceOnUse"><stop stop-color="#9A7027"/><stop offset="1" stop-color="#F1D476"/></linearGradient><linearGradient id="c" x1="5.137" x2="19.997" y1="14.354" y2=".662" gradientUnits="userSpaceOnUse"><stop stop-color="#9A7027"/><stop offset="1" stop-color="#F1D476"/></linearGradient><clipPath id="a"><path fill="#fff" d="M0 0h26v26H0z"/></clipPath></defs></svg>