<svg width="50" height="50" viewBox="0 0 50 50" fill="none" xmlns="http://www.w3.org/2000/svg">
<path d="M45.7712 38.1875C45.7712 38.9375 45.6045 39.7083 45.2503 40.4583C44.8962 41.2083 44.4378 41.9166 43.8337 42.5833C42.8128 43.7083 41.6878 44.5208 40.417 45.0416C39.167 45.5625 37.8128 45.8333 36.3545 45.8333C34.2295 45.8333 31.9587 45.3333 29.5628 44.3125C27.167 43.2916 24.7712 41.9166 22.3962 40.1875C20.0003 38.4375 17.7295 36.5 15.5628 34.3541C13.417 32.1875 11.4795 29.9166 9.75032 27.5416C8.04199 25.1666 6.66699 22.7916 5.66699 20.4375C4.66699 18.0625 4.16699 15.7916 4.16699 13.625C4.16699 12.2083 4.41699 10.8541 4.91699 9.60413C5.41699 8.33329 6.20866 7.16663 7.31283 6.12496C8.64616 4.81246 10.1045 4.16663 11.6462 4.16663C12.2295 4.16663 12.8128 4.29163 13.3337 4.54163C13.8753 4.79163 14.3545 5.16663 14.7295 5.70829L19.5628 12.5208C19.9378 13.0416 20.2087 13.5208 20.3962 13.9791C20.5837 14.4166 20.6878 14.8541 20.6878 15.25C20.6878 15.75 20.542 16.25 20.2503 16.7291C19.9795 17.2083 19.5837 17.7083 19.0837 18.2083L17.5003 19.8541C17.2712 20.0833 17.167 20.3541 17.167 20.6875C17.167 20.8541 17.1878 21 17.2295 21.1666C17.292 21.3333 17.3545 21.4583 17.3962 21.5833C17.7712 22.2708 18.417 23.1666 19.3337 24.25C20.2712 25.3333 21.2712 26.4375 22.3545 27.5416C23.4795 28.6458 24.5628 29.6666 25.667 30.6041C26.7503 31.5208 27.6462 32.1458 28.3545 32.5208C28.4587 32.5625 28.5837 32.625 28.7295 32.6875C28.8962 32.75 29.0628 32.7708 29.2503 32.7708C29.6045 32.7708 29.8753 32.6458 30.1045 32.4166L31.6878 30.8541C32.2087 30.3333 32.7087 29.9375 33.1878 29.6875C33.667 29.3958 34.1462 29.25 34.667 29.25C35.0628 29.25 35.4795 29.3333 35.9378 29.5208C36.3962 29.7083 36.8753 29.9791 37.3962 30.3333L44.292 35.2291C44.8337 35.6041 45.2087 36.0416 45.4378 36.5625C45.6462 37.0833 45.7712 37.6041 45.7712 38.1875Z" stroke="url(#paint0_radial_2002_12347)" stroke-width="1.5" stroke-miterlimit="10"/>
<path d="M41.667 8.33325H31.667M41.667 8.33325V18.3333V8.33325Z" stroke="url(#paint1_radial_2002_12347)" stroke-width="1.5" stroke-linecap="round" stroke-linejoin="round"/>
<defs>
<radialGradient id="paint0_radial_2002_12347" cx="0" cy="0" r="1" gradientUnits="userSpaceOnUse" gradientTransform="translate(24.9691 25) rotate(-7.1088) scale(11.0442 443.266)">
<stop offset="0.109" stop-color="#F9C239"/>
<stop offset="0.324" stop-color="#F5ECCD"/>
<stop offset="0.924" stop-color="#DAA520"/>
</radialGradient>
<radialGradient id="paint1_radial_2002_12347" cx="0" cy="0" r="1" gradientUnits="userSpaceOnUse" gradientTransform="translate(36.667 13.3333) rotate(-7.09825) scale(2.65453 106.386)">
<stop offset="0.109" stop-color="#F9C239"/>
<stop offset="0.324" stop-color="#F5ECCD"/>
<stop offset="0.924" stop-color="#DAA520"/>
</radialGradient>
</defs>
</svg>
