<svg xmlns="http://www.w3.org/2000/svg" width="50" height="51" fill="none"><path fill="url(#a)" stroke="url(#b)" stroke-linecap="round" stroke-linejoin="round" stroke-width="1.5" d="M35.438 27.02a2.23 2.23 0 1 0 0-4.457 2.23 2.23 0 0 0 0 4.458Z"/><path stroke="url(#c)" stroke-linecap="round" stroke-linejoin="round" stroke-width="1.5" d="M41.667 13v3.73a15.016 15.016 0 0 0-1.771-.105h-8.917c-4.458 0-5.937 1.48-5.937 5.938v10.645H12.5c-6.667 0-8.333-1.666-8.333-8.333V13c0-6.667 1.666-8.333 8.333-8.333h20.833c6.667 0 8.334 1.666 8.334 8.333Z"/><path stroke="url(#d)" stroke-linecap="round" stroke-linejoin="round" stroke-width="1.5" d="M18.75 33.208v8.959"/><path stroke="url(#e)" stroke-linecap="round" stroke-linejoin="round" stroke-width="1.5" d="M4.167 25.292H25"/><path stroke="url(#f)" stroke-linecap="round" stroke-linejoin="round" stroke-width="1.5" d="M12.396 42.167H25"/><path stroke="url(#g)" stroke-linecap="round" stroke-linejoin="round" stroke-miterlimit="10" stroke-width="1.5" d="M35.438 27.02a2.23 2.23 0 1 0 0-4.457 2.23 2.23 0 0 0 0 4.458Z"/><path stroke="url(#h)" stroke-linecap="round" stroke-linejoin="round" stroke-miterlimit="10" stroke-width="1.5" d="M41.667 16.73a15.016 15.016 0 0 0-1.771-.105h-8.917c-4.458 0-5.937 1.48-5.937 5.938v17.833c0 4.458 1.479 5.937 5.937 5.937h8.917c4.458 0 5.937-1.479 5.937-5.937V22.563c0-3.813-1.083-5.438-4.166-5.834Zm-6.23 5.833c1.23 0 2.23 1 2.23 2.229s-1 2.229-2.23 2.229c-1.229 0-2.229-1-2.229-2.23 0-1.229 1-2.228 2.23-2.228Zm0 17.833c-2.458 0-4.458-2-4.458-4.459 0-1.02.354-1.979.938-2.729a4.462 4.462 0 0 1 3.52-1.729 4.45 4.45 0 0 1 2.917 1.084c.938.833 1.542 2.041 1.542 3.374 0 2.459-2 4.459-4.459 4.459Z"/><path stroke="url(#i)" stroke-linecap="round" stroke-linejoin="round" stroke-miterlimit="10" stroke-width="1.5" d="M39.896 35.938c0 2.458-2 4.458-4.459 4.458-2.458 0-4.458-2-4.458-4.458 0-1.021.354-1.98.938-2.73a4.462 4.462 0 0 1 3.52-1.729 4.45 4.45 0 0 1 2.917 1.084c.938.833 1.542 2.041 1.542 3.375Z"/><path stroke="url(#j)" stroke-linecap="round" stroke-linejoin="round" stroke-miterlimit="10" stroke-width="1.5" d="M35.438 27.02a2.23 2.23 0 1 0 0-4.457 2.23 2.23 0 0 0 0 4.458Z"/><defs><radialGradient id="a" cx="0" cy="0" r="1" gradientTransform="matrix(1.1744 -.14624 5.86085 47.0661 35.438 24.792)" gradientUnits="userSpaceOnUse"><stop offset=".109" stop-color="#F9C239"/><stop offset=".324" stop-color="#F5ECCD"/><stop offset=".924" stop-color="#DAA520"/></radialGradient><radialGradient id="b" cx="0" cy="0" r="1" gradientTransform="matrix(1.1744 -.14624 5.86085 47.0661 35.438 24.792)" gradientUnits="userSpaceOnUse"><stop offset=".109" stop-color="#F9C239"/><stop offset=".324" stop-color="#F5ECCD"/><stop offset=".924" stop-color="#DAA520"/></radialGradient><radialGradient id="c" cx="0" cy="0" r="1" gradientTransform="matrix(9.8782 -.93624 28.7429 303.26595 22.917 18.938)" gradientUnits="userSpaceOnUse"><stop offset=".109" stop-color="#F9C239"/><stop offset=".324" stop-color="#F5ECCD"/><stop offset=".924" stop-color="#DAA520"/></radialGradient><radialGradient id="d" cx="0" cy="0" r="1" gradientTransform="matrix(.26342 -.29385 47.73456 42.79053 19.25 37.688)" gradientUnits="userSpaceOnUse"><stop offset=".109" stop-color="#F9C239"/><stop offset=".324" stop-color="#F5ECCD"/><stop offset=".924" stop-color="#DAA520"/></radialGradient><radialGradient id="e" cx="0" cy="0" r="1" gradientTransform="matrix(5.4879 -.0328 .06408 10.7204 14.583 25.792)" gradientUnits="userSpaceOnUse"><stop offset=".109" stop-color="#F9C239"/><stop offset=".324" stop-color="#F5ECCD"/><stop offset=".924" stop-color="#DAA520"/></radialGradient><radialGradient id="f" cx="0" cy="0" r="1" gradientTransform="matrix(3.32017 -.0328 .1059 10.71978 18.698 42.667)" gradientUnits="userSpaceOnUse"><stop offset=".109" stop-color="#F9C239"/><stop offset=".324" stop-color="#F5ECCD"/><stop offset=".924" stop-color="#DAA520"/></radialGradient><radialGradient id="g" cx="0" cy="0" r="1" gradientTransform="matrix(1.1744 -.14624 5.86085 47.0661 35.438 24.792)" gradientUnits="userSpaceOnUse"><stop offset=".109" stop-color="#F9C239"/><stop offset=".324" stop-color="#F5ECCD"/><stop offset=".924" stop-color="#DAA520"/></radialGradient><radialGradient id="h" cx="0" cy="0" r="1" gradientTransform="matrix(5.47692 -.9745 54.93083 308.72318 35.438 31.48)" gradientUnits="userSpaceOnUse"><stop offset=".109" stop-color="#F9C239"/><stop offset=".324" stop-color="#F5ECCD"/><stop offset=".924" stop-color="#DAA520"/></radialGradient><radialGradient id="i" cx="0" cy="0" r="1" gradientTransform="rotate(-7.098 307.427 -267.708) scale(2.36696 94.8618)" gradientUnits="userSpaceOnUse"><stop offset=".109" stop-color="#F9C239"/><stop offset=".324" stop-color="#F5ECCD"/><stop offset=".924" stop-color="#DAA520"/></radialGradient><radialGradient id="j" cx="0" cy="0" r="1" gradientTransform="matrix(1.1744 -.14624 5.86085 47.0661 35.438 24.792)" gradientUnits="userSpaceOnUse"><stop offset=".109" stop-color="#F9C239"/><stop offset=".324" stop-color="#F5ECCD"/><stop offset=".924" stop-color="#DAA520"/></radialGradient></defs></svg>