<svg width="19" height="19" viewBox="0 0 19 19" fill="none" xmlns="http://www.w3.org/2000/svg">
<g clip-path="url(#clip0_2003_4230)">
<path d="M6.77029 1.09201C4.97181 1.71592 3.42081 2.90012 2.34509 4.47067C1.26938 6.04122 0.725656 7.91534 0.79379 9.81775C0.861924 11.7202 1.53832 13.5506 2.72364 15.0401C3.90895 16.5297 5.54069 17.5999 7.3792 18.0936C8.86972 18.4782 10.4313 18.4951 11.9298 18.1428C13.2873 17.8379 14.5423 17.1857 15.572 16.25C16.6437 15.2464 17.4216 13.9697 17.822 12.5572C18.2573 11.0211 18.3347 9.40567 18.0484 7.83498H9.67842V11.307H14.5258C14.4289 11.8608 14.2213 12.3893 13.9154 12.861C13.6095 13.3326 13.2116 13.7377 12.7454 14.052C12.1535 14.4436 11.4863 14.707 10.7865 14.8255C10.0847 14.9559 9.3649 14.9559 8.66311 14.8255C7.95181 14.6784 7.27893 14.3848 6.68732 13.9634C5.73691 13.2907 5.02328 12.3349 4.64826 11.2325C4.26691 10.1094 4.26691 8.89193 4.64826 7.76889C4.9152 6.98169 5.3565 6.26495 5.9392 5.67217C6.60603 4.98134 7.45026 4.48754 8.37926 4.24493C9.30826 4.00233 10.2861 4.02029 11.2056 4.29686C11.9239 4.51735 12.5807 4.90258 13.1237 5.42186C13.6703 4.87811 14.2159 4.33295 14.7606 3.78639C15.0419 3.49248 15.3484 3.21264 15.6254 2.9117C14.7966 2.14034 13.8236 1.54012 12.7623 1.14545C10.8297 0.443718 8.7151 0.424859 6.77029 1.09201Z" fill="white"/>
<path d="M6.77053 1.09203C8.71518 0.424418 10.8298 0.44278 12.7626 1.14406C13.824 1.54141 14.7965 2.14452 15.6243 2.91874C15.343 3.21968 15.0463 3.50093 14.7594 3.79343C14.2138 4.33812 13.6687 4.88093 13.124 5.42187C12.5809 4.90259 11.9241 4.51736 11.2058 4.29687C10.2867 4.01933 9.30883 4.00033 8.37959 4.24194C7.45034 4.48356 6.60559 4.97646 5.93803 5.66656C5.35532 6.25934 4.91403 6.97608 4.64709 7.76328L1.73193 5.50624C2.77538 3.43703 4.58205 1.85425 6.77053 1.09203Z" fill="#E33629"/>
<path d="M0.958551 7.74216C1.11524 6.96562 1.37537 6.21361 1.73199 5.50623L4.64714 7.76888C4.26579 8.89192 4.26579 10.1094 4.64714 11.2325C3.67589 11.9825 2.70418 12.7362 1.73199 13.4937C0.839231 11.7167 0.566956 9.69193 0.958551 7.74216Z" fill="#F8BD00"/>
<path d="M9.67836 7.83362H18.0484C18.3347 9.40431 18.2572 11.0197 17.822 12.5558C17.4215 13.9684 16.6436 15.245 15.572 16.2486C14.6312 15.5146 13.6862 14.7861 12.7454 14.0521C13.2118 13.7374 13.6099 13.3319 13.9158 12.8597C14.2217 12.3876 14.4292 11.8585 14.5257 11.3042H9.67836C9.67695 10.1483 9.67836 8.99096 9.67836 7.83362Z" fill="#587DBD"/>
<path d="M1.73047 13.4937C2.70266 12.7437 3.67437 11.99 4.64562 11.2325C5.02139 12.3353 5.73604 13.2911 6.6875 13.9634C7.28095 14.3829 7.95528 14.674 8.6675 14.8184C9.3693 14.9489 10.0891 14.9489 10.7909 14.8184C11.4907 14.7 12.1579 14.4365 12.7498 14.045C13.6906 14.779 14.6356 15.5075 15.5764 16.2415C14.5469 17.1777 13.2918 17.8304 11.9342 18.1358C10.4357 18.488 8.87411 18.4711 7.38359 18.0865C6.20474 17.7718 5.10361 17.2169 4.14922 16.4567C3.13905 15.6547 2.314 14.644 1.73047 13.4937Z" fill="#319F43"/>
</g>
<defs>
<clipPath id="clip0_2003_4230">
<rect width="18" height="18" fill="white" transform="translate(0.5 0.5)"/>
</clipPath>
</defs>
</svg>
