<svg xmlns="http://www.w3.org/2000/svg" width="20" height="20" fill="none"><path fill="#FBFDFF" fill-rule="evenodd" d="M1 10c0-3.595 0-5.393.857-6.687a5.16 5.16 0 0 1 1.456-1.456C4.607 1 6.405 1 10 1s5.393 0 6.687.857a5.159 5.159 0 0 1 1.456 1.456C19 4.607 19 6.405 19 10s0 5.393-.857 6.687a5.158 5.158 0 0 1-1.456 1.456C15.393 19 13.595 19 10 19s-5.393 0-6.687-.857a5.159 5.159 0 0 1-1.456-1.456C1 15.393 1 13.595 1 10Zm13.66 0a4.66 4.66 0 1 1-9.32 0 4.66 4.66 0 0 1 9.32 0ZM10 13.083a3.083 3.083 0 1 0 0-6.166 3.083 3.083 0 0 0 0 6.166Zm4.844-6.881a1.095 1.095 0 1 0 0-2.19 1.095 1.095 0 0 0 0 2.19Z" clip-rule="evenodd" opacity=".9"/></svg>