<svg xmlns="http://www.w3.org/2000/svg" width="20" height="17" fill="none"><path fill="#FBFDFF" fill-rule="evenodd" d="M1.344 6.974C6.59 4.688 10.09 3.181 11.84 2.452 16.84.373 17.878.012 18.555 0c.15-.002.482.034.698.21.182.147.232.347.256.487.024.14.054.46.03.708-.27 2.847-1.443 9.754-2.039 12.942-.252 1.348-.75 1.8-1.23 1.845-1.045.096-1.84-.69-2.852-1.354-1.584-1.039-2.479-1.685-4.017-2.699-1.777-1.17-.625-1.815.388-2.867.265-.275 4.87-4.464 4.96-4.844.011-.048.021-.225-.084-.318-.105-.094-.26-.062-.372-.036-.16.036-2.69 1.708-7.593 5.018-.718.493-1.37.734-1.952.721-.643-.014-1.88-.363-2.798-.662C.823 8.784-.073 8.59.005 7.968c.04-.324.487-.655 1.339-.994Z" clip-rule="evenodd"/></svg>