<svg xmlns="http://www.w3.org/2000/svg" width="18" height="20" fill="none"><path fill="#FBFDFF" d="M17.387 4.957A5.007 5.007 0 0 1 12.38 0H9.147v8.833l-.004 4.837a2.93 2.93 0 0 1-4.434 2.51 2.92 2.92 0 0 1-1.429-2.467 2.93 2.93 0 0 1 3.853-2.824V7.613a6.193 6.193 0 0 0-.933-.07A6.2 6.2 0 0 0 1.54 9.628a6.08 6.08 0 0 0-1.53 3.66 6.06 6.06 0 0 0 1.805 4.716A6.204 6.204 0 0 0 6.2 19.8c.314 0 .627-.023.933-.07a6.187 6.187 0 0 0 3.45-1.727 6.05 6.05 0 0 0 1.817-4.306l-.016-7.226c.558.43 1.162.782 1.816 1.057a8.147 8.147 0 0 0 3.195.643V4.953c.004.004-.008.004-.008.004Z"/></svg>