<svg xmlns="http://www.w3.org/2000/svg" width="19" height="20" fill="none"><path fill="#FBFDFF" d="M.076 9.118c0 1.607.42 3.176 1.218 4.559L0 18.402l4.836-1.268a9.117 9.117 0 0 0 4.358 1.11h.004c5.027 0 9.12-4.09 9.122-9.119a9.062 9.062 0 0 0-2.67-6.45A9.064 9.064 0 0 0 9.198 0C4.17 0 .078 4.09.076 9.118"/><path fill="#FBFDFF" d="M.08 9.445c-.001 1.665.434 3.29 1.26 4.722L0 19.062l5.009-1.314a9.444 9.444 0 0 0 4.515 1.15h.004c5.207 0 9.446-4.237 9.449-9.445a9.388 9.388 0 0 0-2.765-6.683A9.39 9.39 0 0 0 9.528 0C4.32 0 .081 4.237.08 9.445Zm2.982 4.476-.187-.297a7.83 7.83 0 0 1-1.2-4.178c.001-4.329 3.524-7.85 7.856-7.85 2.098 0 4.07.818 5.552 2.302a7.803 7.803 0 0 1 2.298 5.554c-.002 4.329-3.524 7.85-7.853 7.85h-.003c-1.41 0-2.792-.378-3.997-1.094l-.287-.17-2.972.78.793-2.897Z"/><path fill="#0F1113" d="M7.166 5.496c-.177-.393-.363-.4-.531-.408-.138-.005-.295-.005-.453-.005a.868.868 0 0 0-.63.295c-.216.237-.825.808-.825 1.97 0 1.16.846 2.283.964 2.441.118.157 1.633 2.617 4.032 3.564 1.995.786 2.4.63 2.833.59.433-.04 1.397-.57 1.594-1.122.197-.551.197-1.024.138-1.123-.06-.098-.217-.157-.453-.275-.236-.118-1.397-.69-1.613-.768-.216-.079-.374-.118-.531.118-.158.236-.61.768-.748.925-.137.158-.275.178-.511.06-.236-.119-.997-.368-1.899-1.172-.702-.626-1.175-1.398-1.313-1.635-.138-.236-.015-.364.103-.481.107-.106.237-.276.355-.414.118-.138.157-.236.236-.394.078-.157.039-.295-.02-.413-.06-.118-.518-1.286-.728-1.753Z"/></svg>