<svg xmlns="http://www.w3.org/2000/svg" width="20" height="14" fill="none"><path fill="#FBFDFF" d="m10.339 13.978-4.063-.076c-1.315-.026-2.633.027-3.923-.247-1.961-.41-2.1-2.418-2.246-4.102-.2-2.368-.122-4.779.256-7.127C.576 1.11 1.416.322 2.715.236c4.386-.31 8.8-.273 13.176-.128.462.013.927.086 1.383.169 2.25.402 2.304 2.678 2.45 4.593.145 1.936.084 3.88-.194 5.803-.223 1.591-.65 2.926-2.45 3.054-2.256.169-4.46.305-6.722.261 0-.01-.013-.01-.02-.01ZM7.95 9.95l5.058-2.969c-1.703-.997-3.367-1.978-5.058-2.969V9.95Z"/></svg>