<svg xmlns="http://www.w3.org/2000/svg" width="24" height="24" fill="none"><rect width="6.791" height="7.922" fill="url(#a)" rx="2.228" transform="rotate(42.678 5.174 21.996) skewX(-.099)"/><g filter="url(#b)"><mask id="e" fill="#fff"><path d="M13.207 5.64a1.134 1.134 0 0 1 1.6-.063l3.329 3.069c.46.423.488 1.139.063 1.597l-6.49 7.016c-.28.301-.635.521-1.029.636l-1.933.565-2.996-2.762.41-1.969a2.26 2.26 0 0 1 .555-1.073l6.49-7.016Z"/></mask><path fill="url(#c)" d="M13.207 5.64a1.134 1.134 0 0 1 1.6-.063l3.329 3.069c.46.423.488 1.139.063 1.597l-6.49 7.016c-.28.301-.635.521-1.029.636l-1.933.565-2.996-2.762.41-1.969a2.26 2.26 0 0 1 .555-1.073l6.49-7.016Z"/><path fill="url(#d)" d="m14.807 5.577-.07.076.07-.076Zm-1.6.063-.077-.07.077.07Zm4.929 3.006-.07.076.07-.076Zm.063 1.597.077.071-.077-.07Zm-6.49 7.016-.077-.07.076.07Zm-1.029.636.03.1-.03-.1Zm-1.933.565-.07.076.042.04.057-.016-.03-.1ZM5.75 15.698l-.102-.021-.012.057.044.04.07-.076Zm.41-1.969-.101-.021.102.021Zm.555-1.073-.077-.071.077.07ZM14.878 5.5a1.238 1.238 0 0 0-1.748.07l.153.141a1.03 1.03 0 0 1 1.454-.058l.141-.153Zm3.329 3.069L14.878 5.5l-.141.153 3.328 3.07.142-.154Zm.069 1.745a1.234 1.234 0 0 0-.07-1.745l-.14.153c.416.385.442 1.034.057 1.45l.153.142Zm-6.491 7.016 6.491-7.016-.153-.141-6.492 7.015.154.142Zm-1.076.665a2.37 2.37 0 0 0 1.076-.665l-.153-.142a2.162 2.162 0 0 1-.981.607l.058.2Zm-1.933.565 1.933-.565-.058-.2-1.933.565.058.2Zm.042-.177-2.996-2.762-.141.153 2.995 2.763.142-.154Zm-2.179-5.798a2.365 2.365 0 0 0-.58 1.123l.205.042c.08-.382.262-.736.528-1.023l-.153-.142Zm6.491-7.016L6.64 12.585l.153.142 6.492-7.016-.154-.142ZM5.854 15.72l.41-1.969-.204-.042-.41 1.969.204.042Z" mask="url(#e)"/></g><g filter="url(#f)"><rect width="4.527" height="1.132" fill="url(#g)" rx=".566" transform="matrix(-.73518 -.67788 -.67915 .734 17.367 9.476)"/><rect width="4.444" height="1.048" x="-.059" y=".002" stroke="url(#h)" stroke-width=".083" rx=".524" transform="matrix(-.73518 -.67788 -.67915 .734 17.266 9.437)"/></g><path fill="url(#i)" d="M8.747 18.46 5.75 15.698l-.615 2.95a.566.566 0 0 0 .713.658l2.898-.846Z"/><defs><linearGradient id="a" x1="-.902" x2="6.597" y1="6.368" y2="1.926" gradientUnits="userSpaceOnUse"><stop stop-color="#9A7027"/><stop offset="1" stop-color="#F1D476"/></linearGradient><linearGradient id="c" x1="4.058" x2="17.206" y1="15.875" y2="7.088" gradientUnits="userSpaceOnUse"><stop stop-color="#9A7027"/><stop offset="1" stop-color="#F1D476"/></linearGradient><linearGradient id="d" x1="4.058" x2="17.206" y1="15.875" y2="7.088" gradientUnits="userSpaceOnUse"><stop stop-color="#9A7027"/><stop offset="1" stop-color="#F1D476"/></linearGradient><linearGradient id="g" x1="-.601" x2=".18" y1=".91" y2="-1.251" gradientUnits="userSpaceOnUse"><stop stop-color="#9A7027"/><stop offset="1" stop-color="#F1D476"/></linearGradient><linearGradient id="h" x1="-.601" x2=".18" y1=".91" y2="-1.251" gradientUnits="userSpaceOnUse"><stop stop-color="#9A7027"/><stop offset="1" stop-color="#F1D476"/></linearGradient><linearGradient id="i" x1="3.792" x2="8.126" y1="17.019" y2="16.882" gradientUnits="userSpaceOnUse"><stop stop-color="#9A7027"/><stop offset="1" stop-color="#F1D476"/></linearGradient><filter id="b" width="17.205" height="17.639" x="3.523" y="3.049" color-interpolation-filters="sRGB" filterUnits="userSpaceOnUse"><feFlood flood-opacity="0" result="BackgroundImageFix"/><feGaussianBlur in="BackgroundImageFix" stdDeviation="1.114"/><feComposite in2="SourceAlpha" operator="in" result="effect1_backgroundBlur_2002_4589"/><feBlend in="SourceGraphic" in2="effect1_backgroundBlur_2002_4589" result="shape"/></filter><filter id="f" width="12.541" height="12.345" x="9.048" y="2.185" color-interpolation-filters="sRGB" filterUnits="userSpaceOnUse"><feFlood flood-opacity="0" result="BackgroundImageFix"/><feGaussianBlur in="BackgroundImageFix" stdDeviation="2.228"/><feComposite in2="SourceAlpha" operator="in" result="effect1_backgroundBlur_2002_4589"/><feBlend in="SourceGraphic" in2="effect1_backgroundBlur_2002_4589" result="shape"/></filter></defs></svg>