<svg width="40" height="40" viewBox="0 0 40 40" fill="none" xmlns="http://www.w3.org/2000/svg">
<path fill-rule="evenodd" clip-rule="evenodd" d="M28.8331 25.5C28.4614 25.7478 28.1818 25.8114 27.9258 25.8962C27.7512 25.954 27.5307 25.9863 27.3613 26.0579C27.0719 26.1803 26.7266 26.3255 26.6778 26.6359C26.6664 26.7079 26.6664 26.7794 26.6664 26.8334C26.6664 27 26.6664 27.1667 26.4998 27.3334C26.3331 27.5 25.9998 27.5 25.6664 27.5C25.1664 27.5 24.4998 27.5 23.8331 27.8334C23.1678 28.166 22.5617 28.6207 21.8695 28.893C21.4291 29.0663 20.8982 29.1667 20.1664 29.1667C18.8331 29.1667 18.1664 28.6667 17.4998 28.3334C16.828 27.9975 16.1363 27.7169 15.3977 27.5805C15.1316 27.5314 14.8833 27.5 14.6664 27.5C14.6344 27.5 14.6025 27.5 14.5707 27.4999C14.0617 27.4975 13.3331 27.3423 13.3331 26.8334C13.3331 26.7918 13.3331 26.7398 13.3279 26.6852C13.2952 26.3407 12.8246 26.2437 12.506 26.1086C12.3769 26.0538 12.2701 25.9652 12.1379 25.9182C11.8642 25.8208 11.5695 25.7687 11.1664 25.5C10.6829 25.1777 11.4437 24.7192 11.9403 24.4174C14.417 22.9123 14.8331 20.8187 14.8331 20.6667C14.8331 20.5 14.8331 20.3334 14.6664 20.1667C14.5441 20.0444 14.2424 19.8324 13.8928 19.6623C13.6412 19.5399 13.3892 19.4204 13.1475 19.2794C13.045 19.2195 12.9484 19.1353 12.8545 19.0627C12.4687 18.764 12.3504 18.4653 12.4998 18.1667C12.6664 17.8334 12.8331 17.8334 13.1664 17.8334C13.3331 17.8334 13.3331 17.8334 13.4998 17.8334C13.6292 17.8334 13.7587 17.8585 13.8784 17.899C14.201 18.0082 14.4925 18.3334 14.8331 18.3334C14.8331 18.3334 14.8331 18.3334 14.9998 18.3334C15.1664 18.3334 15.1664 18.3334 15.1664 18V17.8334C15.1664 17.3334 14.9998 16.1667 15.1664 15.3334C15.4136 13.3562 16.9814 11.6747 18.9353 11.2843C19.3032 11.2108 19.7128 11.1667 20.1664 11.1667C20.6264 11.1667 21.041 11.2185 21.4128 11.303C23.3064 11.7331 24.9256 13.4065 25.1664 15.3334C25.3331 16.3334 25.1664 17.3334 25.1664 18C25.1664 18.1667 25.1664 18.3334 25.3331 18.3334C25.3331 18.3334 25.3331 18.3334 25.3331 18.3334C25.3331 18.3334 25.3331 18.3334 25.4998 18.3334C25.5269 18.3334 25.5541 18.3289 25.5813 18.3215C25.8663 18.2437 26.1362 18.0934 26.4164 18C26.4527 17.9879 26.4889 17.9759 26.5261 17.9628C26.7329 17.8901 26.9472 17.8334 27.1664 17.8334C27.2992 17.8334 27.4056 17.8598 27.496 17.9022C27.7544 18.0233 27.9582 18.3138 27.8675 18.5844C27.8487 18.6404 27.8204 18.6965 27.7828 18.7526C27.5592 19.0854 27.1166 19.2165 26.8331 19.5C26.6622 19.6709 26.4039 19.8417 26.1701 19.9677C25.8631 20.1331 25.4998 20.3179 25.4998 20.6667C25.4998 20.8189 25.9167 22.778 28.4008 24.3862C28.8582 24.6823 29.3204 25.2564 28.8331 25.5Z" fill="url(#paint0_radial_2002_9096)" stroke="url(#paint1_radial_2002_9096)" stroke-miterlimit="10" stroke-linejoin="round"/>
<path d="M19.9997 36.6666C29.2044 36.6666 36.6663 29.2047 36.6663 20C36.6663 10.7952 29.2044 3.33331 19.9997 3.33331C10.7949 3.33331 3.33301 10.7952 3.33301 20C3.33301 29.2047 10.7949 36.6666 19.9997 36.6666Z" stroke="url(#paint2_radial_2002_9096)" stroke-miterlimit="10" stroke-linejoin="round"/>
<defs>
<radialGradient id="paint0_radial_2002_9096" cx="0" cy="0" r="1" gradientUnits="userSpaceOnUse" gradientTransform="translate(20.076 20.1667) rotate(-6.96518) scale(4.86899 191.55)">
<stop offset="0.109" stop-color="#F9C239"/>
<stop offset="0.324" stop-color="#F5ECCD"/>
<stop offset="0.924" stop-color="#DAA520"/>
</radialGradient>
<radialGradient id="paint1_radial_2002_9096" cx="0" cy="0" r="1" gradientUnits="userSpaceOnUse" gradientTransform="translate(20.076 20.1667) rotate(-6.96518) scale(4.86899 191.55)">
<stop offset="0.109" stop-color="#F9C239"/>
<stop offset="0.324" stop-color="#F5ECCD"/>
<stop offset="0.924" stop-color="#DAA520"/>
</radialGradient>
<radialGradient id="paint2_radial_2002_9096" cx="0" cy="0" r="1" gradientUnits="userSpaceOnUse" gradientTransform="translate(19.9997 20) rotate(-7.09825) scale(8.84845 354.621)">
<stop offset="0.109" stop-color="#F9C239"/>
<stop offset="0.324" stop-color="#F5ECCD"/>
<stop offset="0.924" stop-color="#DAA520"/>
</radialGradient>
</defs>
</svg>
