<svg width="51" height="50" viewBox="0 0 51 50" fill="none" xmlns="http://www.w3.org/2000/svg">
<path d="M25.4998 30.2083C28.3763 30.2083 30.7082 27.8764 30.7082 25C30.7082 22.1235 28.3763 19.7916 25.4998 19.7916C22.6234 19.7916 20.2915 22.1235 20.2915 25C20.2915 27.8764 22.6234 30.2083 25.4998 30.2083Z" stroke="url(#paint0_radial_2001_2355)" stroke-width="1.5" stroke-miterlimit="10" stroke-linecap="round" stroke-linejoin="round"/>
<path d="M39.0415 19.7916V30.2083" stroke="url(#paint1_radial_2001_2355)" stroke-width="1.5" stroke-miterlimit="10" stroke-linecap="round" stroke-linejoin="round"/>
<path d="M19.2502 37.5C19.2502 39.0625 18.8127 40.5416 18.0419 41.7916C16.6044 44.2083 13.9585 45.8333 10.9168 45.8333C7.87516 45.8333 5.2293 44.2083 3.7918 41.7916C3.02097 40.5416 2.5835 39.0625 2.5835 37.5C2.5835 32.8958 6.31266 29.1666 10.9168 29.1666C15.521 29.1666 19.2502 32.8958 19.2502 37.5Z" stroke="url(#paint2_radial_2001_2355)" stroke-width="1.5" stroke-miterlimit="10" stroke-linecap="round" stroke-linejoin="round"/>
<path d="M7.66992 37.4989L9.7324 39.5614L14.1699 35.4573" stroke="url(#paint3_radial_2001_2355)" stroke-width="1.5" stroke-linecap="round" stroke-linejoin="round"/>
<path d="M4.6665 31.875V18.75C4.6665 11.4584 8.83317 8.33337 15.0832 8.33337H35.9165C42.1665 8.33337 46.3332 11.4584 46.3332 18.75V31.25C46.3332 38.5417 42.1665 41.6667 35.9165 41.6667H18.2082" stroke="url(#paint4_radial_2001_2355)" stroke-width="1.5" stroke-miterlimit="10" stroke-linecap="round" stroke-linejoin="round"/>
<defs>
<radialGradient id="paint0_radial_2001_2355" cx="0" cy="0" r="1" gradientUnits="userSpaceOnUse" gradientTransform="translate(25.4998 25) rotate(-7.09825) scale(2.76514 110.819)">
<stop offset="0.109" stop-color="#F9C239"/>
<stop offset="0.324" stop-color="#F5ECCD"/>
<stop offset="0.924" stop-color="#DAA520"/>
</radialGradient>
<radialGradient id="paint1_radial_2001_2355" cx="0" cy="0" r="1" gradientUnits="userSpaceOnUse" gradientTransform="translate(39.5415 25) rotate(-52.3704) scale(0.431442 68.1836)">
<stop offset="0.109" stop-color="#F9C239"/>
<stop offset="0.324" stop-color="#F5ECCD"/>
<stop offset="0.924" stop-color="#DAA520"/>
</radialGradient>
<radialGradient id="paint2_radial_2001_2355" cx="0" cy="0" r="1" gradientUnits="userSpaceOnUse" gradientTransform="translate(10.9168 37.5) rotate(-7.09825) scale(4.42422 177.311)">
<stop offset="0.109" stop-color="#F9C239"/>
<stop offset="0.324" stop-color="#F5ECCD"/>
<stop offset="0.924" stop-color="#DAA520"/>
</radialGradient>
<radialGradient id="paint3_radial_2001_2355" cx="0" cy="0" r="1" gradientUnits="userSpaceOnUse" gradientTransform="translate(10.9199 37.5093) rotate(-4.49567) scale(1.7175 43.8639)">
<stop offset="0.109" stop-color="#F9C239"/>
<stop offset="0.324" stop-color="#F5ECCD"/>
<stop offset="0.924" stop-color="#DAA520"/>
</radialGradient>
<radialGradient id="paint4_radial_2001_2355" cx="0" cy="0" r="1" gradientUnits="userSpaceOnUse" gradientTransform="translate(25.4998 25.0001) rotate(-5.68906) scale(11.0301 355.6)">
<stop offset="0.109" stop-color="#F9C239"/>
<stop offset="0.324" stop-color="#F5ECCD"/>
<stop offset="0.924" stop-color="#DAA520"/>
</radialGradient>
</defs>
</svg>
