<svg width="62" height="62" viewBox="0 0 62 62" fill="none" xmlns="http://www.w3.org/2000/svg">
<rect x="0.5" y="0.5" width="61" height="61" rx="30.5" fill="url(#paint0_linear_2002_4454)"/>
<rect x="0.5" y="0.5" width="61" height="61" rx="30.5" stroke="url(#paint1_linear_2002_4454)" stroke-linejoin="round" stroke-dasharray="8 8"/>
<path d="M19.4434 48V43.56C20.5794 42.616 21.8834 41.52 23.3554 40.272C24.8274 39.008 26.3234 37.672 27.8434 36.264C29.3634 34.84 30.7634 33.424 32.0434 32.016C33.3234 30.592 34.3554 29.248 35.1394 27.984C35.9394 26.704 36.3394 25.592 36.3394 24.648C36.3394 23.576 36.0754 22.6 35.5474 21.72C35.0354 20.824 34.3394 20.112 33.4594 19.584C32.5794 19.04 31.6034 18.768 30.5314 18.768C29.4594 18.768 28.4754 19.04 27.5794 19.584C26.6994 20.112 25.9874 20.824 25.4434 21.72C24.9154 22.6 24.6514 23.576 24.6514 24.648H19.6594C19.6594 22.616 20.1554 20.784 21.1474 19.152C22.1554 17.504 23.4754 16.2 25.1074 15.24C26.7554 14.264 28.5634 13.776 30.5314 13.776C32.5154 13.776 34.3234 14.264 35.9554 15.24C37.5874 16.216 38.8914 17.528 39.8674 19.176C40.8434 20.808 41.3314 22.632 41.3314 24.648C41.3314 25.768 41.0994 26.92 40.6354 28.104C40.1714 29.288 39.5234 30.496 38.6914 31.728C37.8754 32.96 36.9234 34.208 35.8354 35.472C34.7474 36.736 33.5794 38 32.3314 39.264C31.0834 40.528 29.8114 41.776 28.5154 43.008H41.6194V48H19.4434Z" fill="#FDFEF6"/>
<defs>
<linearGradient id="paint0_linear_2002_4454" x1="-6.96835" y1="49.234" x2="53.6132" y2="7.36952" gradientUnits="userSpaceOnUse">
<stop stop-color="#9A7027"/>
<stop offset="1" stop-color="#F1D476"/>
</linearGradient>
<linearGradient id="paint1_linear_2002_4454" x1="-6.96835" y1="49.234" x2="53.6132" y2="7.36952" gradientUnits="userSpaceOnUse">
<stop stop-color="#9A7027"/>
<stop offset="1" stop-color="#F1D476"/>
</linearGradient>
</defs>
</svg>
