<svg width="62" height="62" viewBox="0 0 62 62" fill="none" xmlns="http://www.w3.org/2000/svg">
<rect x="0.5" y="0.5" width="61" height="61" rx="30.5" fill="url(#paint0_linear_2002_4828)"/>
<rect x="0.5" y="0.5" width="61" height="61" rx="30.5" stroke="url(#paint1_linear_2002_4828)" stroke-linejoin="round" stroke-dasharray="8 8"/>
<path d="M30.9788 48.624C28.9468 48.624 27.1228 48.152 25.5068 47.208C23.9068 46.264 22.6428 45 21.7148 43.416C20.7868 41.832 20.3228 40.072 20.3228 38.136H25.3148C25.3148 39.144 25.5548 40.064 26.0348 40.896C26.5148 41.728 27.1788 42.392 28.0268 42.888C28.8748 43.384 29.8588 43.632 30.9788 43.632C31.9868 43.632 32.9228 43.384 33.7868 42.888C34.6508 42.392 35.3468 41.728 35.8748 40.896C36.4028 40.064 36.6668 39.144 36.6668 38.136C36.6668 36.856 36.3308 35.784 35.6588 34.92C34.9868 34.056 34.0508 33.416 32.8508 33C31.6668 32.568 30.2988 32.352 28.7468 32.352V28.416C30.8588 28.416 32.5468 28 33.8108 27.168C35.0748 26.336 35.7068 25.096 35.7068 23.448C35.7068 22.584 35.4748 21.8 35.0108 21.096C34.5628 20.376 33.9628 19.808 33.2108 19.392C32.4748 18.96 31.6828 18.744 30.8348 18.744C29.9548 18.744 29.1068 18.96 28.2908 19.392C27.4908 19.808 26.8348 20.376 26.3228 21.096C25.8108 21.8 25.5548 22.584 25.5548 23.448H20.5628C20.5628 22.12 20.8348 20.872 21.3788 19.704C21.9388 18.52 22.6908 17.488 23.6348 16.608C24.5948 15.712 25.6828 15.016 26.8988 14.52C28.1308 14.008 29.4188 13.752 30.7628 13.752C32.5228 13.752 34.1548 14.192 35.6588 15.072C37.1788 15.936 38.3948 17.104 39.3068 18.576C40.2348 20.032 40.6988 21.656 40.6988 23.448C40.6988 24.872 40.3468 26.224 39.6428 27.504C38.9548 28.768 37.9948 29.664 36.7628 30.192C37.8348 30.576 38.7308 31.184 39.4508 32.016C40.1868 32.832 40.7388 33.776 41.1068 34.848C41.4748 35.904 41.6588 37 41.6588 38.136C41.6588 40.056 41.1708 41.816 40.1948 43.416C39.2188 45 37.9148 46.264 36.2828 47.208C34.6668 48.152 32.8988 48.624 30.9788 48.624Z" fill="#FDFEF6"/>
<defs>
<linearGradient id="paint0_linear_2002_4828" x1="-6.96835" y1="49.234" x2="53.6132" y2="7.36952" gradientUnits="userSpaceOnUse">
<stop stop-color="#9A7027"/>
<stop offset="1" stop-color="#F1D476"/>
</linearGradient>
<linearGradient id="paint1_linear_2002_4828" x1="-6.96835" y1="49.234" x2="53.6132" y2="7.36952" gradientUnits="userSpaceOnUse">
<stop stop-color="#9A7027"/>
<stop offset="1" stop-color="#F1D476"/>
</linearGradient>
</defs>
</svg>
