<svg xmlns="http://www.w3.org/2000/svg" width="27" height="26" fill="none"><path fill="url(#a)" stroke="url(#b)" stroke-linecap="round" stroke-linejoin="round" stroke-miterlimit="10" stroke-width=".75" d="M12.85 2.6 7.325 8.125a.524.524 0 0 0 0 .758l1.842 1.842a.524.524 0 0 0 .758 0L15.45 5.2a.524.524 0 0 0 0-.758L13.608 2.6a.524.524 0 0 0-.758 0Z"/><path fill="url(#c)" stroke="url(#d)" stroke-linecap="round" stroke-linejoin="round" stroke-miterlimit="10" stroke-width=".75" d="m17.075 6.825-9.75 9.75a.524.524 0 0 0 0 .758l1.842 1.842a.524.524 0 0 0 .758 0l9.75-9.75a.524.524 0 0 0 0-.758l-1.842-1.842a.524.524 0 0 0-.758 0Z"/><path stroke="url(#e)" stroke-linecap="round" stroke-linejoin="round" stroke-miterlimit="10" stroke-width=".75" d="m21.3 11.05-9.75 9.75a.524.524 0 0 0 0 .758l1.842 1.842a.524.524 0 0 0 .758 0l9.75-9.75a.524.524 0 0 0 0-.758l-1.842-1.842a.524.524 0 0 0-.758 0Z"/><path stroke="url(#f)" stroke-linecap="round" stroke-linejoin="round" stroke-miterlimit="10" stroke-width=".75" d="M4.942 14.95 3.1 13.108a.524.524 0 0 1 0-.758l1.842-1.842a.524.524 0 0 1 .758 0l1.842 1.842a.524.524 0 0 1 0 .758L5.7 14.95a.524.524 0 0 1-.758 0Z"/><defs><linearGradient id="a" x1="6.04" x2="14.572" y1="9.23" y2="3.335" gradientUnits="userSpaceOnUse"><stop stop-color="#9A7027"/><stop offset="1" stop-color="#F1D476"/></linearGradient><linearGradient id="b" x1="6.04" x2="14.572" y1="9.23" y2="3.335" gradientUnits="userSpaceOnUse"><stop stop-color="#9A7027"/><stop offset="1" stop-color="#F1D476"/></linearGradient><linearGradient id="c" x1="5.479" x2="18.277" y1="16.852" y2="8.008" gradientUnits="userSpaceOnUse"><stop stop-color="#9A7027"/><stop offset="1" stop-color="#F1D476"/></linearGradient><linearGradient id="d" x1="5.479" x2="18.277" y1="16.852" y2="8.008" gradientUnits="userSpaceOnUse"><stop stop-color="#9A7027"/><stop offset="1" stop-color="#F1D476"/></linearGradient><linearGradient id="e" x1="9.704" x2="22.502" y1="21.077" y2="12.233" gradientUnits="userSpaceOnUse"><stop stop-color="#9A7027"/><stop offset="1" stop-color="#F1D476"/></linearGradient><linearGradient id="f" x1="2.304" x2="7.117" y1="14.178" y2="10.852" gradientUnits="userSpaceOnUse"><stop stop-color="#9A7027"/><stop offset="1" stop-color="#F1D476"/></linearGradient></defs></svg>