<svg xmlns="http://www.w3.org/2000/svg" width="27" height="26" fill="none"><path fill="url(#a)" stroke="url(#b)" stroke-linecap="round" stroke-linejoin="round" stroke-width=".75" d="m14.594 3.163 6.392 2.839c1.842.812 1.842 2.155 0 2.968l-6.392 2.838c-.726.325-1.917.325-2.643 0L5.559 8.97c-1.841-.813-1.841-2.156 0-2.968l6.392-2.839c.726-.325 1.917-.325 2.643 0Z"/><path stroke="url(#c)" stroke-linecap="round" stroke-linejoin="round" stroke-width=".75" d="M3.75 11.917c0 .91.683 1.96 1.517 2.329l7.356 3.272c.563.249 1.202.249 1.755 0l7.355-3.272c.834-.368 1.517-1.42 1.517-2.33"/><path stroke="url(#d)" stroke-linecap="round" stroke-linejoin="round" stroke-width=".75" d="M3.75 17.333c0 1.008.596 1.918 1.517 2.33l7.356 3.271c.563.25 1.202.25 1.755 0l7.355-3.272a2.553 2.553 0 0 0 1.517-2.329"/><defs><linearGradient id="a" x1="1.762" x2="11.138" y1="10.261" y2="-2.643" gradientUnits="userSpaceOnUse"><stop stop-color="#9A7027"/><stop offset="1" stop-color="#F1D476"/></linearGradient><linearGradient id="b" x1="1.762" x2="11.138" y1="10.261" y2="-2.643" gradientUnits="userSpaceOnUse"><stop stop-color="#9A7027"/><stop offset="1" stop-color="#F1D476"/></linearGradient><linearGradient id="c" x1="1.16" x2="5.691" y1="16.57" y2="6.021" gradientUnits="userSpaceOnUse"><stop stop-color="#9A7027"/><stop offset="1" stop-color="#F1D476"/></linearGradient><linearGradient id="d" x1="1.16" x2="5.691" y1="21.986" y2="11.437" gradientUnits="userSpaceOnUse"><stop stop-color="#9A7027"/><stop offset="1" stop-color="#F1D476"/></linearGradient></defs></svg>