<svg xmlns="http://www.w3.org/2000/svg" width="27" height="26" fill="none"><path stroke="url(#a)" stroke-linecap="round" stroke-linejoin="round" stroke-miterlimit="10" stroke-width=".75" d="M21.408 8.58v5.58c0 3.336-1.906 4.766-4.766 4.766H7.119c-.487 0-.953-.043-1.386-.141-.271-.043-.531-.12-.77-.206-1.625-.607-2.61-2.015-2.61-4.42V8.58c0-3.337 1.906-4.767 4.766-4.767h9.523c2.426 0 4.17 1.03 4.636 3.38.076.434.13.878.13 1.387Z"/><path fill="url(#b)" stroke="url(#c)" stroke-linecap="round" stroke-linejoin="round" stroke-miterlimit="10" stroke-width=".75" d="M24.66 11.83v5.58c0 3.336-1.907 4.766-4.767 4.766H10.37c-.801 0-1.527-.108-2.156-.347-1.289-.476-2.166-1.462-2.48-3.044.433.098.899.14 1.386.14h9.523c2.86 0 4.767-1.429 4.767-4.766V8.58c0-.51-.044-.964-.13-1.387 2.058.434 3.38 1.885 3.38 4.637Z"/><path stroke="url(#d)" stroke-linecap="round" stroke-linejoin="round" stroke-miterlimit="10" stroke-width=".75" d="M11.873 14.235a2.86 2.86 0 1 0 0-5.72 2.86 2.86 0 0 0 0 5.72Z"/><path stroke="url(#e)" stroke-linecap="round" stroke-linejoin="round" stroke-miterlimit="10" stroke-width=".75" d="M5.678 8.992v4.766"/><path stroke="url(#f)" stroke-linecap="round" stroke-linejoin="round" stroke-miterlimit="10" stroke-width=".75" d="M18.073 8.992v4.767"/><defs><linearGradient id="a" x1="-.178" x2="15.981" y1="15.962" y2="1.882" gradientUnits="userSpaceOnUse"><stop stop-color="#9A7027"/><stop offset="1" stop-color="#F1D476"/></linearGradient><linearGradient id="b" x1="3.22" x2="19.244" y1="19.238" y2="5.25" gradientUnits="userSpaceOnUse"><stop stop-color="#9A7027"/><stop offset="1" stop-color="#F1D476"/></linearGradient><linearGradient id="c" x1="3.22" x2="19.244" y1="19.238" y2="5.25" gradientUnits="userSpaceOnUse"><stop stop-color="#9A7027"/><stop offset="1" stop-color="#F1D476"/></linearGradient><linearGradient id="d" x1="8.254" x2="14.029" y1="13.113" y2="9.122" gradientUnits="userSpaceOnUse"><stop stop-color="#9A7027"/><stop offset="1" stop-color="#F1D476"/></linearGradient><linearGradient id="e" x1="5.546" x2="7.007" y1="12.824" y2="12.612" gradientUnits="userSpaceOnUse"><stop stop-color="#9A7027"/><stop offset="1" stop-color="#F1D476"/></linearGradient><linearGradient id="f" x1="17.941" x2="19.402" y1="12.824" y2="12.612" gradientUnits="userSpaceOnUse"><stop stop-color="#9A7027"/><stop offset="1" stop-color="#F1D476"/></linearGradient></defs></svg>