<svg xmlns="http://www.w3.org/2000/svg" width="123" height="52" fill="none"><path fill="url(#a)" fill-rule="evenodd" d="M23.598.105c-1.515.187-2.473.582-5.732 2.364C7.145 8.333 4.062 10.061 3.373 10.596c-1.039.807-1.799 1.745-2.451 3.024-.975 1.911-.948 1.539-.907 12.816l.037 9.98.333.856c.704 1.81 1.682 3.17 3.02 4.196.408.313 2.808 1.705 5.334 3.094l8.379 4.604c2.63 1.444 4.077 2.167 4.738 2.367 2.859.864 5.481.537 8.357-1.04l3.973-2.178c12.455-6.825 12.416-6.802 13.527-8.147a9.174 9.174 0 0 0 2.047-4.815c.166-1.403.166-17.254 0-18.662-.331-2.817-1.893-5.29-4.236-6.71-.602-.364-2.403-1.356-13.255-7.305C28.609.67 27.716.306 25.934.1c-1.158-.134-1.213-.134-2.336.005ZM65.063 8.31c-1.826.467-3.092 1.691-3.502 3.385-.196.807-.162 9 .04 9.72.509 1.813 1.883 3.01 3.857 3.355 1.673.293 3.325.04 4.516-.693.842-.518 1.235-.965 1.725-1.958l.346-.704v-4.902c0-4.843-.003-4.91-.286-5.575-.554-1.304-1.942-2.375-3.475-2.68-.889-.177-2.426-.152-3.221.052Zm12.787-.065c-1.461.293-2.566 1.064-3.154 2.201-.364.705-.407.901-.455 2.103-.117 2.916.71 3.896 4.237 5.02 2.111.673 2.652.953 2.89 1.498.223.505.221 1.478-.003 1.988-.217.495-.599.742-1.353.876-1.28.227-2.468-.281-3.002-1.284-.173-.325-.355-.59-.405-.59-.05 0-.69.252-1.422.56-.94.397-1.332.621-1.334.765-.008.441.63 1.534 1.231 2.105 1.09 1.038 2.698 1.506 4.716 1.375 2.144-.139 3.563-.91 4.342-2.36.389-.724.43-.902.48-2.064.124-2.86-.646-3.983-3.387-4.937l-2.11-.733c-1.47-.508-1.79-.86-1.794-1.975-.004-.911.176-1.238.858-1.565.646-.31 1.317-.34 1.959-.084.618.245.873.484 1.226 1.147.165.308.322.56.349.56.162 0 2.677-1.232 2.677-1.311 0-.053-.115-.389-.255-.745-.354-.9-1.192-1.748-2.187-2.214-.748-.35-.922-.383-2.195-.411-.76-.017-1.62.017-1.909.075Zm12.16.058c-.889.237-1.323.466-1.978 1.04-.637.56-1.184 1.514-1.386 2.422-.089.396-.14 2.154-.14 4.788 0 4.525.053 4.98.71 6.13.868 1.515 2.76 2.343 4.99 2.18 2.411-.178 3.793-1.355 4.394-3.743.106-.423.21-1.007.232-1.3l.039-.531-1.576-.033-1.577-.033-.076.446c-.131.767-.462 1.497-.825 1.82-.812.726-2.322.402-2.866-.614-.194-.362-.217-.827-.217-4.336 0-3.053.037-4.017.169-4.317.368-.839 1.46-1.312 2.368-1.026.74.232 1.053.727 1.368 2.158l.071.324h3.207l-.062-.443c-.373-2.652-1.19-3.991-2.886-4.73-.58-.253-.916-.31-2-.34-.882-.025-1.517.02-1.959.138Zm10.007 8.117-2.668 8.184.32.067c.567.118 2.311.125 2.63.01.313-.114.348-.197.849-1.999l.14-.504 2.443.032 2.442.032.33 1.14c.182.627.371 1.202.421 1.278.063.098.547.127 1.628.1.846-.02 1.538-.069 1.538-.106.001-.037-1.194-3.731-2.655-8.209l-2.656-8.14-1.047-.035-1.046-.033-2.669 8.183Zm11.842.064.031 8.238 1.304.01c.717.005 1.401-.015 1.52-.044.201-.049.218-.311.218-3.405v-3.352h1.434l1.486 3.36c1.126 2.546 1.545 3.374 1.73 3.42.363.091 3.294.034 3.294-.064 0-.046-.732-1.633-1.626-3.526-.894-1.894-1.606-3.453-1.583-3.464l.521-.253c.683-.331 1.514-1.265 1.823-2.048.337-.853.454-2.528.254-3.62-.334-1.829-1.483-2.984-3.336-3.358-.39-.079-1.97-.133-3.88-.133h-3.222l.032 8.239Zm-46.02-5.244c-.46.203-.873.62-1.047 1.058-.084.211-.133 1.763-.133 4.254 0 3.59.02 3.956.23 4.333.77 1.38 3.035 1.355 3.838-.042.187-.324.22-.823.256-3.798.023-1.884.005-3.702-.039-4.04a2.305 2.305 0 0 0-.963-1.611c-.429-.303-1.611-.388-2.142-.154Zm49.093 1.848v2.008h1.557c2.321 0 2.601-.218 2.601-2.018 0-1.693-.398-1.98-2.762-1.992l-1.396-.006v2.008Zm-101.265-.396c-.843.4-1.15.925-2.042 3.487-.515 1.48-.838 2.604-.838 2.918 0 .603.254 1.162.721 1.588.323.294 7.112 3.887 7.195 3.808.022-.021-.1-.563-.27-1.205-.469-1.758-.694-3.269-.694-4.664-.001-2.418.304-2.74.405-.428.113 2.566.944 5.192 2.592 8.189 1.288 2.342 1.594 2.529 4.14 2.529 1.795 0 2.305-.12 2.925-.688.632-.579 2.194-3.552 2.834-5.394.685-1.97.888-2.952.969-4.695.105-2.26.41-1.897.409.487 0 1.395-.224 2.909-.69 4.668-.17.642-.291 1.185-.27 1.206.083.078 6.874-3.525 7.213-3.828.46-.41.699-.95.699-1.584 0-.312-.337-1.466-.877-3.007-.833-2.38-.902-2.525-1.416-2.975-.306-.269-.72-.505-.955-.547-.228-.04-1.953-.056-3.834-.037l-3.42.036-1.36.82c-1.178.71-1.45.826-2.052.869-.79.056-.953-.007-2.65-1.024l-1.11-.665-3.607-.03c-3.144-.025-3.66-.004-4.017.166Zm89.288 3.731-.779 2.718c-.054.19.076.207 1.507.207 1.209 0 1.567-.035 1.567-.155 0-.185-1.449-5.16-1.524-5.232-.028-.027-.376 1.08-.771 2.462ZM9.36 22.644c-.543.237-.89.558-1.29 1.193-.454.719-.364 1.449.442 3.603.864 2.312 1.12 2.616 2.528 3.017 2.976.847 5.476 2.78 7.069 5.465.222.375.376.709.342.741-.034.033-.214-.188-.4-.49-.42-.683-1.905-2.184-2.733-2.765-.617-.433-1.701-1.067-1.824-1.067-.086 0-.264 1.48-.245 2.037.026.78.412 1.264 1.999 2.51.827.65 1.684 1.255 1.904 1.344.525.212 2.277.105 2.845-.174.933-.457 3.384-2.14 3.597-2.468.899-1.386.324-2.944-1.294-3.505-1.273-.442-1.577-.83-2.144-2.742-.556-1.875-.726-2.186-1.442-2.637-.466-.293-.628-.328-1.467-.313-1.121.019-2.112.244-3.292.75-.867.37-.867.37-.569.069.164-.167.595-.497.957-.734l.658-.431-.856-.899c-1.36-1.425-2.522-2.469-2.9-2.604-.527-.187-1.33-.145-1.885.1Zm29.046-.04c-.422.207-1.537 1.22-2.8 2.544l-.855.899.658.43c.362.238.79.566.953.73l.294.299-.803-.347c-1.224-.528-2.13-.74-3.262-.762-.937-.019-1.076.01-1.553.31-.716.45-.886.76-1.442 2.636-.422 1.422-.538 1.677-.941 2.06-.267.254-.724.521-1.088.636-.806.255-1.205.558-1.538 1.17a2.332 2.332 0 0 0 0 2.164c.211.387.596.707 1.792 1.49.838.548 1.716 1.09 1.95 1.205.577.281 2.29.38 2.829.163.22-.088 1.077-.693 1.904-1.342 1.589-1.248 2-1.766 2.011-2.531.008-.568-.177-2.017-.257-2.017-.141 0-1.242.658-1.887 1.127-.897.652-2.25 2.024-2.673 2.71-.184.3-.363.518-.398.485-.034-.032.094-.314.284-.625 1.758-2.882 4.1-4.72 7.1-5.573 1.522-.433 1.68-.636 2.76-3.547.706-1.905.665-2.693-.19-3.659-.672-.758-2.01-1.066-2.848-.655Zm23.026 6.312v1.418h3.724v13.583h3.101l.032-6.762.032-6.763 1.893-.032 1.893-.033V27.5H61.432v1.417ZM73.969 35.7v8.217H77.072V37.184h1.464l.904 2.038c.497 1.12 1.165 2.622 1.484 3.336l.58 1.3 1.756.032c.966.018 1.756-.014 1.756-.07 0-.058-.725-1.637-1.613-3.509-.887-1.872-1.599-3.412-1.582-3.422.017-.01.29-.16.61-.333.75-.409 1.397-1.136 1.743-1.961.376-.9.41-3.506.056-4.47-.356-.972-1.049-1.714-2.029-2.173l-.84-.394-3.696-.038-3.696-.037V35.7Zm15.418-.126c-1.448 4.442-2.633 8.136-2.633 8.21 0 .091.49.133 1.583.133h1.583l.367-1.302.367-1.302 2.424.032 2.424.032.362 1.27.362 1.27h1.609c1.608 0 1.61 0 1.537-.266-.04-.146-1.234-3.84-2.653-8.208l-2.579-7.942-1.06-.001-1.06-.001-2.633 8.075Zm11.518.144v8.218l3.383-.044c3.061-.04 3.442-.067 4.014-.286 1.495-.575 2.484-1.605 2.847-2.966.166-.622.19-1.437.158-5.256-.038-4.392-.047-4.538-.323-5.19-.553-1.307-1.88-2.285-3.495-2.576-.363-.066-1.993-.12-3.622-.12h-2.962v8.22Zm12.413-.01v8.209H123v-2.835H116.421v-3.898h5.586V34.35h-5.586v-4.016H123V27.5h-9.682v8.209Zm-36.246-3.426v1.95h1.716c1.622 0 1.73-.015 1.971-.267.14-.146.317-.381.394-.523.214-.396.174-1.882-.063-2.358-.32-.64-.683-.75-2.46-.75h-1.558v1.948Zm26.936 3.426v5.374h1.161c1.261 0 1.844-.132 2.296-.519.63-.54.639-.61.639-4.855 0-4.246-.009-4.316-.639-4.856-.452-.387-1.035-.518-2.296-.518h-1.161v5.374Zm-11.407-1.09-.762 2.655-.348 1.21H94.662l-.74-2.569c-.408-1.413-.778-2.607-.824-2.654-.045-.048-.269.564-.497 1.358ZM23.807 37.75c-.583.283-2.723 1.708-2.992 1.992-.815.863-.765 2.314.11 3.236.541.57 1.334.82 2.6.82h.901l.071-.502c.04-.276.113-.848.163-1.27.05-.422.148-.768.216-.768s.165.346.215.768c.05.422.125 1 .166 1.285l.073.517 1.2-.055c1.347-.063 1.766-.214 2.355-.852.657-.712.822-1.76.411-2.608-.29-.598-.506-.781-2.219-1.879-1.34-.86-1.428-.897-2.115-.897-.445 0-.882.081-1.155.213Z" clip-rule="evenodd"/><defs><linearGradient id="a" x1="-16.335" x2="33.639" y1="41.803" y2="-39.885" gradientUnits="userSpaceOnUse"><stop stop-color="#9A7027"/><stop offset="1" stop-color="#F1D476"/></linearGradient></defs></svg>