<svg xmlns="http://www.w3.org/2000/svg" width="40" height="41" fill="none"><path stroke="url(#a)" stroke-linecap="round" stroke-linejoin="round" stroke-miterlimit="10" d="M30 31.933h-1.267c-1.333 0-2.6.517-3.533 1.45L22.35 36.2a3.37 3.37 0 0 1-4.717 0l-2.85-2.817a5.008 5.008 0 0 0-3.533-1.45H10c-2.767 0-5-2.216-5-4.95V8.8c0-2.733 2.233-4.95 5-4.95h20c2.767 0 5 2.217 5 4.95v18.183c0 2.717-2.233 4.95-5 4.95Z"/><path stroke="url(#b)" stroke-linecap="round" stroke-linejoin="round" d="M11.666 15.767a2.824 2.824 0 0 1 2.817-2.817 2.824 2.824 0 0 1 2.817 2.817c0 3.133-4.45 3.466-5.434 6.45-.2.616.317 1.233.967 1.233H17.3"/><path fill="url(#c)" d="M26.733 23.433v-9.517a.965.965 0 0 0-.7-.933.99.99 0 0 0-1.1.417c-1.2 1.933-2.5 4.133-3.633 6.066a1.07 1.07 0 0 0 0 1.05c.183.317.533.517.916.517h6.117"/><path stroke="url(#d)" stroke-linecap="round" stroke-linejoin="round" d="M26.733 23.433v-9.517a.965.965 0 0 0-.7-.933.99.99 0 0 0-1.1.417c-1.2 1.933-2.5 4.133-3.633 6.066a1.07 1.07 0 0 0 0 1.05c.183.317.533.517.916.517h6.117"/><defs><radialGradient id="a" cx="0" cy="0" r="1" gradientTransform="matrix(7.90257 -1.09273 48.4568 350.43667 20 20.506)" gradientUnits="userSpaceOnUse"><stop offset=".109" stop-color="#F9C239"/><stop offset=".324" stop-color="#F5ECCD"/><stop offset=".924" stop-color="#DAA520"/></radialGradient><radialGradient id="b" cx="0" cy="0" r="1" gradientTransform="matrix(1.48393 -.34443 24.79227 106.81453 14.483 18.2)" gradientUnits="userSpaceOnUse"><stop offset=".109" stop-color="#F9C239"/><stop offset=".324" stop-color="#F5ECCD"/><stop offset=".924" stop-color="#DAA520"/></radialGradient><radialGradient id="c" cx="0" cy="0" r="1" gradientTransform="rotate(-10.321 113.079 -127.918) scale(1.92 110.608)" gradientUnits="userSpaceOnUse"><stop offset=".109" stop-color="#F9C239"/><stop offset=".324" stop-color="#F5ECCD"/><stop offset=".924" stop-color="#DAA520"/></radialGradient><radialGradient id="d" cx="0" cy="0" r="1" gradientTransform="rotate(-10.321 113.079 -127.918) scale(1.92 110.608)" gradientUnits="userSpaceOnUse"><stop offset=".109" stop-color="#F9C239"/><stop offset=".324" stop-color="#F5ECCD"/><stop offset=".924" stop-color="#DAA520"/></radialGradient></defs></svg>