<svg width="40" height="40" viewBox="0 0 40 40" fill="none" xmlns="http://www.w3.org/2000/svg">
<path d="M23.5499 18.9C24.1999 16.1666 21.8165 13.7832 19.0832 14.4332C17.7999 14.7499 16.7499 15.7999 16.4332 17.0833C15.7832 19.8166 18.1665 22.1999 20.8999 21.5499C22.1999 21.2332 23.2499 20.1833 23.5499 18.9Z" stroke="url(#paint0_linear_2004_46336)" stroke-linecap="round" stroke-linejoin="round"/>
<path d="M30.0167 28.6499C32.8667 25.9833 34.6501 22.1999 34.6501 17.9832C34.6501 9.88321 28.0834 3.33325 20.0001 3.33325C11.9168 3.33325 5.3501 9.89988 5.3501 17.9832C5.3501 22.2165 7.15009 26.0332 10.0334 28.6999" stroke="url(#paint1_linear_2004_46336)" stroke-linecap="round" stroke-linejoin="round"/>
<path d="M13.3334 24.2499C11.8001 22.6166 10.8501 20.4166 10.8501 17.9832C10.8501 12.9332 14.9501 8.83325 20.0001 8.83325C25.0501 8.83325 29.1501 12.9332 29.1501 17.9832C29.1501 20.4166 28.2001 22.5999 26.6668 24.2499" stroke="url(#paint2_linear_2004_46336)" stroke-linecap="round" stroke-linejoin="round"/>
<path d="M17.1666 27.7666L14.7666 30.75C12.8666 33.1333 14.55 36.6499 17.6 36.6499H22.3833C25.4333 36.6499 27.1333 33.1166 25.2166 30.75L22.8166 27.7666C21.3833 25.9499 18.6166 25.9499 17.1666 27.7666Z" fill="url(#paint3_linear_2004_46336)" stroke="url(#paint4_linear_2004_46336)" stroke-linecap="round" stroke-linejoin="round"/>
<defs>
<linearGradient id="paint0_linear_2004_46336" x1="15.3514" y1="20.22" x2="22.7552" y2="15.1037" gradientUnits="userSpaceOnUse">
<stop stop-color="#9A7027"/>
<stop offset="1" stop-color="#F1D476"/>
</linearGradient>
<linearGradient id="paint1_linear_2004_46336" x1="1.45889" y1="23.7255" x2="28.1592" y2="2.41339" gradientUnits="userSpaceOnUse">
<stop stop-color="#9A7027"/>
<stop offset="1" stop-color="#F1D476"/>
</linearGradient>
<linearGradient id="paint2_linear_2004_46336" x1="8.41975" y1="21.2267" x2="24.7396" y2="7.8397" gradientUnits="userSpaceOnUse">
<stop stop-color="#9A7027"/>
<stop offset="1" stop-color="#F1D476"/>
</linearGradient>
<linearGradient id="paint3_linear_2004_46336" x1="12.3615" y1="34.6407" x2="23.1901" y2="25.8304" gradientUnits="userSpaceOnUse">
<stop stop-color="#9A7027"/>
<stop offset="1" stop-color="#F1D476"/>
</linearGradient>
<linearGradient id="paint4_linear_2004_46336" x1="12.3615" y1="34.6407" x2="23.1901" y2="25.8304" gradientUnits="userSpaceOnUse">
<stop stop-color="#9A7027"/>
<stop offset="1" stop-color="#F1D476"/>
</linearGradient>
</defs>
</svg>
