<svg xmlns="http://www.w3.org/2000/svg" width="40" height="40" fill="none"><path fill="url(#a)" stroke="url(#b)" stroke-linecap="round" stroke-linejoin="round" d="M15.267 18.117a3.024 3.024 0 0 0-.55 0C10.75 17.983 7.6 14.733 7.6 10.733c0-4.083 3.3-7.4 7.4-7.4 4.083 0 7.4 3.317 7.4 7.4-.017 4-3.167 7.25-7.133 7.384Z"/><path stroke="url(#c)" stroke-linecap="round" stroke-linejoin="round" d="M27.35 6.667a5.83 5.83 0 0 1 5.833 5.833c0 3.15-2.5 5.717-5.616 5.833a1.878 1.878 0 0 0-.434 0"/><path stroke="url(#d)" stroke-linecap="round" stroke-linejoin="round" d="M6.933 24.267c-4.033 2.7-4.033 7.1 0 9.783 4.584 3.067 12.1 3.067 16.684 0 4.033-2.7 4.033-7.1 0-9.783-4.567-3.05-12.084-3.05-16.684 0Z"/><path stroke="url(#e)" stroke-linecap="round" stroke-linejoin="round" d="M30.567 33.333c1.2-.25 2.333-.733 3.266-1.45 2.6-1.95 2.6-5.166 0-7.116-.916-.7-2.033-1.167-3.216-1.434"/><defs><radialGradient id="a" cx="0" cy="0" r="1" gradientTransform="matrix(3.8986 -.48493 19.41336 156.07427 15 10.725)" gradientUnits="userSpaceOnUse"><stop offset=".109" stop-color="#F9C239"/><stop offset=".324" stop-color="#F5ECCD"/><stop offset=".924" stop-color="#DAA520"/></radialGradient><radialGradient id="b" cx="0" cy="0" r="1" gradientTransform="matrix(3.8986 -.48493 19.41336 156.07427 15 10.725)" gradientUnits="userSpaceOnUse"><stop offset=".109" stop-color="#F9C239"/><stop offset=".324" stop-color="#F5ECCD"/><stop offset=".924" stop-color="#DAA520"/></radialGradient><radialGradient id="c" cx="0" cy="0" r="1" gradientTransform="matrix(1.59369 -.3827 28.39738 118.25722 30.158 12.5)" gradientUnits="userSpaceOnUse"><stop offset=".109" stop-color="#F9C239"/><stop offset=".324" stop-color="#F5ECCD"/><stop offset=".924" stop-color="#DAA520"/></radialGradient><radialGradient id="d" cx="0" cy="0" r="1" gradientTransform="rotate(-4.501 378.704 -179.765) scale(6.00691 153.592)" gradientUnits="userSpaceOnUse"><stop offset=".109" stop-color="#F9C239"/><stop offset=".324" stop-color="#F5ECCD"/><stop offset=".924" stop-color="#DAA520"/></radialGradient><radialGradient id="e" cx="0" cy="0" r="1" gradientTransform="matrix(1.37417 -.32803 24.2117 101.42827 33.175 28.333)" gradientUnits="userSpaceOnUse"><stop offset=".109" stop-color="#F9C239"/><stop offset=".324" stop-color="#F5ECCD"/><stop offset=".924" stop-color="#DAA520"/></radialGradient></defs></svg>