<svg xmlns="http://www.w3.org/2000/svg" width="40" height="40" fill="none"><path fill="url(#a)" stroke="url(#b)" stroke-linecap="round" stroke-linejoin="round" stroke-miterlimit="10" d="M20 25a5 5 0 1 0 0-10 5 5 0 0 0 0 10Z"/><path stroke="url(#c)" stroke-linecap="round" stroke-linejoin="round" stroke-miterlimit="10" d="M3.333 21.467v-2.934A3.176 3.176 0 0 1 6.5 15.367c3.017 0 4.25-2.134 2.733-4.75A3.165 3.165 0 0 1 10.4 6.3l2.883-1.65c1.317-.783 3.017-.317 3.8 1l.184.317c1.5 2.616 3.966 2.616 5.483 0l.183-.317c.784-1.317 2.484-1.783 3.8-1l2.884 1.65a3.165 3.165 0 0 1 1.166 4.317c-1.516 2.616-.283 4.75 2.734 4.75a3.176 3.176 0 0 1 3.166 3.166v2.934a3.176 3.176 0 0 1-3.166 3.166c-3.017 0-4.25 2.134-2.734 4.75a3.161 3.161 0 0 1-1.166 4.317l-2.884 1.65c-1.316.783-3.016.317-3.8-1l-.183-.317c-1.5-2.616-3.967-2.616-5.483 0l-.184.317c-.783 1.317-2.483 1.783-3.8 1L10.4 33.7a3.165 3.165 0 0 1-1.167-4.317c1.517-2.616.284-4.75-2.733-4.75a3.176 3.176 0 0 1-3.167-3.166Z"/><defs><radialGradient id="a" cx="0" cy="0" r="1" gradientTransform="matrix(2.63418 -.32802 13.14624 105.57063 20 20)" gradientUnits="userSpaceOnUse"><stop offset=".109" stop-color="#F9C239"/><stop offset=".324" stop-color="#F5ECCD"/><stop offset=".924" stop-color="#DAA520"/></radialGradient><radialGradient id="b" cx="0" cy="0" r="1" gradientTransform="matrix(2.63418 -.32802 13.14624 105.57063 20 20)" gradientUnits="userSpaceOnUse"><stop offset=".109" stop-color="#F9C239"/><stop offset=".324" stop-color="#F5ECCD"/><stop offset=".924" stop-color="#DAA520"/></radialGradient><radialGradient id="c" cx="0" cy="0" r="1" gradientTransform="matrix(8.78501 -1.03206 39.08749 332.71687 20.008 20)" gradientUnits="userSpaceOnUse"><stop offset=".109" stop-color="#F9C239"/><stop offset=".324" stop-color="#F5ECCD"/><stop offset=".924" stop-color="#DAA520"/></radialGradient></defs></svg>