<svg xmlns="http://www.w3.org/2000/svg" width="40" height="40" fill="none"><path fill="url(#a)" fill-rule="evenodd" stroke="url(#b)" stroke-linejoin="round" stroke-miterlimit="10" d="M28.833 25.5c-.371.248-.651.311-.907.396-.174.058-.395.09-.564.162-.29.122-.635.268-.684.578-.011.072-.011.143-.011.197 0 .167 0 .334-.167.5-.167.167-.5.167-.833.167-.5 0-1.167 0-1.834.333-.665.333-1.271.788-1.963 1.06-.44.173-.972.274-1.703.274-1.334 0-2-.5-2.667-.834-.672-.335-1.363-.616-2.102-.752a4.149 4.149 0 0 0-.731-.08l-.096-.001c-.509-.002-1.238-.158-1.238-.667 0-.041 0-.093-.005-.148-.032-.344-.503-.441-.822-.576-.129-.055-.236-.144-.368-.19-.274-.098-.568-.15-.971-.419-.484-.322.277-.78.774-1.083 2.476-1.505 2.892-3.598 2.892-3.75 0-.167 0-.334-.166-.5-.123-.123-.424-.335-.774-.505-.252-.122-.504-.241-.745-.383-.103-.06-.2-.144-.293-.216-.386-.299-.504-.598-.355-.896.167-.334.333-.334.667-.334h.333c.13 0 .259.026.379.066.322.11.614.434.954.434H15c.167 0 .167 0 .167-.333v-.167c0-.5-.167-1.666 0-2.5.247-1.977 1.815-3.658 3.769-4.049a6.27 6.27 0 0 1 1.23-.117c.46 0 .875.052 1.247.136 1.894.43 3.513 2.104 3.754 4.03.166 1 0 2 0 2.667 0 .167 0 .333.166.333h.167a.31.31 0 0 0 .081-.011c.285-.078.555-.229.836-.322a7.55 7.55 0 0 0 .11-.037c.206-.073.42-.13.64-.13.132 0 .239.027.33.07.258.12.461.41.37.681a.7.7 0 0 1-.084.169c-.224.332-.666.464-.95.747-.17.17-.429.342-.663.468-.307.165-.67.35-.67.699 0 .152.417 2.111 2.901 3.72.457.295.92.87.432 1.113Z" clip-rule="evenodd"/><path stroke="url(#c)" stroke-linejoin="round" stroke-miterlimit="10" d="M20 36.667c9.205 0 16.667-7.462 16.667-16.667 0-9.205-7.462-16.667-16.667-16.667-9.205 0-16.667 7.462-16.667 16.667 0 9.205 7.462 16.667 16.667 16.667Z"/><defs><radialGradient id="a" cx="0" cy="0" r="1" gradientTransform="matrix(4.83306 -.59044 23.22853 190.13637 20.076 20.167)" gradientUnits="userSpaceOnUse"><stop offset=".109" stop-color="#F9C239"/><stop offset=".324" stop-color="#F5ECCD"/><stop offset=".924" stop-color="#DAA520"/></radialGradient><radialGradient id="b" cx="0" cy="0" r="1" gradientTransform="matrix(4.83306 -.59044 23.22853 190.13637 20.076 20.167)" gradientUnits="userSpaceOnUse"><stop offset=".109" stop-color="#F9C239"/><stop offset=".324" stop-color="#F5ECCD"/><stop offset=".924" stop-color="#DAA520"/></radialGradient><radialGradient id="c" cx="0" cy="0" r="1" gradientTransform="matrix(8.78063 -1.09341 43.82093 351.90308 20 20)" gradientUnits="userSpaceOnUse"><stop offset=".109" stop-color="#F9C239"/><stop offset=".324" stop-color="#F5ECCD"/><stop offset=".924" stop-color="#DAA520"/></radialGradient></defs></svg>