<svg xmlns="http://www.w3.org/2000/svg" width="40" height="41" fill="none"><path stroke="url(#a)" stroke-linecap="round" stroke-linejoin="round" d="M36.667 14.667c0 5.983-4.85 10.833-10.834 10.833v0c-.497 0-.89-.404-.97-.895a10.859 10.859 0 0 0-8.968-8.969c-.491-.079-.895-.472-.895-.97v0c0-5.983 4.85-10.833 10.833-10.833 5.984 0 10.834 4.85 10.834 10.834Z"/><path stroke="url(#b)" stroke-linecap="round" stroke-linejoin="round" d="M25 26.333c0 5.984-4.85 10.834-10.833 10.834-5.984 0-10.834-4.85-10.834-10.834 0-5.983 4.85-10.833 10.834-10.833.283 0 .583.017.866.033 5.284.417 9.517 4.65 9.934 9.934.016.283.033.583.033.866Z"/><path fill="url(#c)" stroke="url(#d)" stroke-linecap="round" stroke-linejoin="round" d="M9.317 3.833H5c-.917 0-1.667.75-1.667 1.667v4.317c0 1.483 1.8 2.233 2.85 1.183L10.5 6.683c1.033-1.05.3-2.85-1.183-2.85Z"/><path fill="url(#e)" stroke="url(#f)" stroke-linecap="round" stroke-linejoin="round" d="M30.683 37.167H35c.917 0 1.667-.75 1.667-1.667v-4.317c0-1.483-1.8-2.233-2.85-1.183L29.5 34.317c-1.033 1.05-.3 2.85 1.183 2.85Z"/><defs><radialGradient id="a" cx="0" cy="0" r="1" gradientTransform="matrix(5.7074 -.71072 28.48365 228.73735 25.833 14.667)" gradientUnits="userSpaceOnUse"><stop offset=".109" stop-color="#F9C239"/><stop offset=".324" stop-color="#F5ECCD"/><stop offset=".924" stop-color="#DAA520"/></radialGradient><radialGradient id="b" cx="0" cy="0" r="1" gradientTransform="matrix(5.7074 -.71072 28.48365 228.73735 14.167 26.333)" gradientUnits="userSpaceOnUse"><stop offset=".109" stop-color="#F9C239"/><stop offset=".324" stop-color="#F5ECCD"/><stop offset=".924" stop-color="#DAA520"/></radialGradient><radialGradient id="c" cx="0" cy="0" r="1" gradientTransform="matrix(2.01496 -.25116 10.07512 80.8298 7.158 7.662)" gradientUnits="userSpaceOnUse"><stop offset=".109" stop-color="#F9C239"/><stop offset=".324" stop-color="#F5ECCD"/><stop offset=".924" stop-color="#DAA520"/></radialGradient><radialGradient id="d" cx="0" cy="0" r="1" gradientTransform="matrix(2.01496 -.25116 10.07512 80.8298 7.158 7.662)" gradientUnits="userSpaceOnUse"><stop offset=".109" stop-color="#F9C239"/><stop offset=".324" stop-color="#F5ECCD"/><stop offset=".924" stop-color="#DAA520"/></radialGradient><radialGradient id="e" cx="0" cy="0" r="1" gradientTransform="matrix(2.01496 -.25116 10.07512 80.8298 32.842 33.338)" gradientUnits="userSpaceOnUse"><stop offset=".109" stop-color="#F9C239"/><stop offset=".324" stop-color="#F5ECCD"/><stop offset=".924" stop-color="#DAA520"/></radialGradient><radialGradient id="f" cx="0" cy="0" r="1" gradientTransform="matrix(2.01496 -.25116 10.07512 80.8298 32.842 33.338)" gradientUnits="userSpaceOnUse"><stop offset=".109" stop-color="#F9C239"/><stop offset=".324" stop-color="#F5ECCD"/><stop offset=".924" stop-color="#DAA520"/></radialGradient></defs></svg>